<svg width="13" height="14" viewBox="0 0 13 14" fill="none" xmlns="http://www.w3.org/2000/svg">
<path d="M11.0003 5.44443L11.0003 2.33332M11.0003 2.33332H7.88921M11.0003 2.33332L6.33366 6.99998M5.29662 2.33331H4.15588C3.28469 2.33331 2.84909 2.33331 2.51634 2.50286C2.22364 2.65199 1.98567 2.88996 1.83654 3.18266C1.66699 3.51541 1.66699 3.95101 1.66699 4.8222V9.17776C1.66699 10.049 1.66699 10.4845 1.83654 10.8173C1.98567 11.11 2.22364 11.348 2.51634 11.4971C2.84909 11.6666 3.28469 11.6666 4.15588 11.6666H8.51144C9.38263 11.6666 9.81823 11.6666 10.151 11.4971C10.4437 11.348 10.6816 11.11 10.8308 10.8173C11.0003 10.4845 11.0003 10.049 11.0003 9.17776V8.03702" stroke="#344054" stroke-width="1.03704" stroke-linecap="round" stroke-linejoin="round"/>
</svg>
