<svg width="40" height="42" viewBox="0 0 40 42" fill="none" xmlns="http://www.w3.org/2000/svg">
  <rect y="0.438141" width="40" height="41.1237" rx="20.5619" fill="#367B55"/>
  <path d="M26.2922 15.4944C26.2922 16.7976 23.4751 17.854 20.0001 17.854C16.5251 17.854 13.708 16.7976 13.708 15.4944M26.2922 15.4944C26.2922 14.1913 23.4751 13.1349 20.0001 13.1349C16.5251 13.1349 13.708 14.1913 13.708 15.4944M26.2922 15.4944V26.5056C26.2922 27.8087 23.4751 28.8651 20.0001 28.8651C16.5251 28.8651 13.708 27.8087 13.708 26.5056V15.4944M26.2922 19.1648C26.2922 20.4679 23.4751 21.5243 20.0001 21.5243C16.5251 21.5243 13.708 20.4679 13.708 19.1648M26.2922 22.8326C26.2922 24.1357 23.4751 25.1921 20.0001 25.1921C16.5251 25.1921 13.708 24.1357 13.708 22.8326" stroke="white" stroke-width="0.786512" stroke-linecap="round" stroke-linejoin="round"/>
</svg>