<svg width="20" height="16" viewBox="0 0 20 16" fill="none" xmlns="http://www.w3.org/2000/svg">
<path d="M6.60515 15.8889C13.9334 15.8889 17.9416 9.81752 17.9416 4.55245C17.9416 4.38 17.9416 4.20833 17.9299 4.03744C18.7097 3.47342 19.3828 2.77506 19.9178 1.97507C19.1906 2.29743 18.4192 2.50875 17.6293 2.60193C18.4611 2.10405 19.0836 1.32087 19.381 0.398185C18.5989 0.862323 17.7433 1.1894 16.851 1.36529C16.2503 0.726521 15.4558 0.303547 14.5904 0.161819C13.7251 0.0200896 12.8372 0.167507 12.0641 0.581259C11.291 0.99501 10.6758 1.65203 10.3137 2.45064C9.95161 3.24926 9.86283 4.14495 10.0611 4.9991C8.47703 4.91964 6.92739 4.50797 5.51274 3.79081C4.0981 3.07365 2.85007 2.06703 1.84966 0.836294C1.34016 1.71341 1.18411 2.75175 1.41328 3.73988C1.64246 4.72802 2.23962 5.59166 3.0832 6.15496C2.44911 6.13638 1.82882 5.96532 1.27484 5.65626V5.70676C1.27509 6.62664 1.59352 7.51812 2.17613 8.22999C2.75874 8.94187 3.56965 9.4303 4.47132 9.61245C3.88475 9.77244 3.2693 9.79583 2.67228 9.6808C2.92698 10.4724 3.42268 11.1647 4.09008 11.6608C4.75748 12.1568 5.56321 12.432 6.39465 12.4477C5.56856 13.097 4.62256 13.5771 3.61076 13.8605C2.59896 14.1439 1.54122 14.225 0.498047 14.0992C2.32013 15.2684 4.44019 15.8886 6.60515 15.8858" fill="white"/>
</svg>
