<svg width="69" height="69" viewBox="0 0 69 69" fill="none" xmlns="http://www.w3.org/2000/svg">
<g clip-path="url(#clip0_1_4)">
<path d="M34.8371 66.6743C52.4803 66.6743 66.6743 52.4803 66.6743 34.8371C66.6743 17.1939 52.4803 3 34.8371 3C17.1939 3 3 17.1939 3 34.8371C3 52.4803 17.1939 66.6743 34.8371 66.6743Z" fill="#2775CA"/>
<path d="M43.5924 39.8779C43.5924 35.2351 40.8066 33.6432 35.2351 32.9801C31.2555 32.4493 30.4595 31.3882 30.4595 29.5308C30.4595 27.6735 31.7862 26.4799 34.4392 26.4799C36.827 26.4799 38.1536 27.2758 38.8168 29.2656C38.9495 29.6636 39.3475 29.9288 39.7455 29.9288H41.8677C42.3985 29.9288 42.7964 29.5308 42.7964 29.0004V28.8677C42.2657 25.9492 39.8779 23.6941 36.827 23.4289V20.2452C36.827 19.7145 36.429 19.3165 35.7658 19.1838H33.776C33.2453 19.1838 32.8473 19.5817 32.7146 20.2452V23.2962C28.7349 23.8269 26.2147 26.4799 26.2147 29.7964C26.2147 34.174 28.8677 35.8983 34.4392 36.5618C38.1536 37.2249 39.3475 38.0208 39.3475 40.1434C39.3475 42.266 37.4901 43.7251 34.9699 43.7251C31.5207 43.7251 30.3268 42.2657 29.9288 40.2759C29.7964 39.7455 29.3984 39.4799 29.0004 39.4799H26.7451C26.2147 39.4799 25.8167 39.8779 25.8167 40.4086V40.5414C26.3471 43.8575 28.4697 46.2453 32.8473 46.9088V50.0925C32.8473 50.6229 33.2453 51.0209 33.9085 51.1537H35.8983C36.429 51.1537 36.827 50.7557 36.9597 50.0925V46.9088C40.9394 46.2453 43.5924 43.4596 43.5924 39.8779Z" fill="white"/>
<path d="M28.0717 53.8066C17.7247 50.0925 12.4184 38.5516 16.2656 28.3369C18.2554 22.7654 22.633 18.5206 28.0717 16.5308C28.6025 16.2656 28.8677 15.8676 28.8677 15.2041V13.3471C28.8677 12.8163 28.6025 12.4184 28.0717 12.2859C27.939 12.2859 27.6738 12.2859 27.541 12.4184C14.9389 16.398 8.04076 29.7964 12.0204 42.3984C14.4082 49.827 20.1124 55.5313 27.541 57.919C28.0717 58.1843 28.6025 57.919 28.7349 57.3883C28.8677 57.2559 28.8677 57.1231 28.8677 56.8579V55.0005C28.8677 54.6026 28.4697 54.0722 28.0717 53.8066ZM42.1332 12.4184C41.6025 12.1532 41.0718 12.4184 40.9393 12.9491C40.8066 13.0819 40.8066 13.2143 40.8066 13.4798V15.3369C40.8066 15.8676 41.2045 16.398 41.6025 16.6635C51.9496 20.3777 57.2559 31.9186 53.4087 42.1332C51.4188 47.7047 47.0412 51.9496 41.6025 53.9394C41.0718 54.2046 40.8066 54.6026 40.8066 55.2661V57.1231C40.8066 57.6538 41.0718 58.0518 41.6025 58.1842C41.7353 58.1842 42.0005 58.1843 42.1332 58.0518C54.7353 54.0722 61.6335 40.6738 57.6538 28.0717C55.2661 20.5104 49.429 14.8062 42.1332 12.4184Z" fill="white"/>
</g>
<rect x="1.86296" y="1.86296" width="65.9483" height="65.9483" rx="32.9742" stroke="white" stroke-width="2.27408"/>
<defs>
<clipPath id="clip0_1_4">
<rect x="3" y="3" width="63.6743" height="63.6743" rx="31.8371" fill="white"/>
</clipPath>
</defs>
</svg>
