<svg width="224" height="224" viewBox="0 0 224 224" fill="none" xmlns="http://www.w3.org/2000/svg">
<g clip-path="url(#clip0_239_356)">
<path fill-rule="evenodd" clip-rule="evenodd" d="M111.788 0C173.528 0 223.576 50.05 223.576 111.788C223.576 173.526 173.527 223.576 111.788 223.576C50.049 223.576 0 173.527 0 111.788C0 50.049 50.05 0 111.788 0Z" fill="#2775CA"/>
<path fill-rule="evenodd" clip-rule="evenodd" d="M137.33 33.0733C134.81 32.2683 132.749 33.7643 132.749 36.4113V42.9203C132.749 44.6943 134.086 46.7143 135.752 47.3243C162.509 57.1243 181.656 82.8433 181.656 112.953C181.656 143.063 162.509 168.78 135.752 178.581C133.925 179.251 132.749 181.04 132.749 182.986V189.494C132.749 192.14 134.809 193.637 137.331 192.832C171.144 182.028 195.629 150.35 195.629 112.952C195.629 75.5543 171.144 43.8773 137.331 33.0743L137.33 33.0733ZM90.8283 36.4103C90.8283 33.7643 88.7673 32.2683 86.2463 33.0733C52.4323 43.8773 27.9473 75.5553 27.9473 112.953C27.9473 150.351 52.4323 182.028 86.2463 192.832C88.7663 193.637 90.8283 192.14 90.8283 189.494V182.986C90.8283 181.211 89.4913 179.191 87.8243 178.581C61.0683 168.781 41.9213 143.062 41.9213 112.953C41.9213 82.8443 61.0683 57.1253 87.8243 47.3243C89.4913 46.7143 90.8283 44.6943 90.8283 42.9203V36.4103Z" fill="white"/>
<path d="M140.377 134.769L133.982 131.912C133.304 131.607 132.535 131.577 131.836 131.828C131.137 132.078 130.562 132.589 130.232 133.255C127.214 139.38 122.198 143.284 115.572 143.284C109.572 143.284 104.76 140.346 101.072 134.409C99.6308 132.112 98.4848 129.549 97.6118 126.739H114.785C115.319 126.738 115.842 126.59 116.297 126.31C116.751 126.031 117.119 125.63 117.36 125.154L121.457 119.624C122.427 117.706 121.032 115.439 118.883 115.439H95.6798C95.6096 114.222 95.5739 113.004 95.5728 111.786C95.5598 110.546 95.5948 109.333 95.6588 108.137H114.785C115.318 108.137 115.842 107.989 116.296 107.709C116.751 107.429 117.119 107.029 117.36 106.553L121.457 101.023C122.427 99.1036 121.032 96.8376 118.883 96.8376H97.5908C100.705 86.6846 107.206 80.0326 115.571 80.1636C121.944 80.1636 126.891 83.6536 130.066 89.3676C130.777 90.6486 132.378 91.1396 133.718 90.5476L140.146 87.7106C141.684 87.0306 142.338 85.1706 141.524 83.7006C135.59 72.9846 126.939 67.6016 115.57 67.6016C105.196 67.6016 96.8838 71.7266 90.5718 79.9136C86.8818 84.7356 84.3148 90.3936 82.7908 96.8376H73.4528C72.919 96.8376 72.3958 96.9856 71.9412 97.2653C71.4866 97.5449 71.1184 97.9452 70.8778 98.4216L66.7808 103.952C65.8108 105.871 67.2058 108.137 69.3558 108.137H81.2478C81.1811 109.352 81.1437 110.569 81.1358 111.787C81.123 113.004 81.145 114.222 81.2018 115.439H73.4528C72.919 115.439 72.3958 115.587 71.9412 115.866C71.4866 116.146 71.1184 116.546 70.8778 117.023L66.7808 122.553C65.8108 124.473 67.2058 126.739 69.3558 126.739H82.7628C87.0028 144.265 99.2108 156.218 115.57 155.97C127.185 155.97 135.94 150.196 141.783 138.699C142.527 137.235 141.875 135.439 140.376 134.769H140.377Z" fill="white"/>
</g>
<defs>
<clipPath id="clip0_239_356">
<rect width="223.576" height="223.576" fill="white"/>
</clipPath>
</defs>
</svg>
