<svg width="21" height="20" viewBox="0 0 21 20" fill="none" xmlns="http://www.w3.org/2000/svg">
<path d="M20.5983 9.93742C20.5983 15.4117 16.1606 19.8494 10.6864 19.8494C5.21215 19.8494 0.774414 15.4117 0.774414 9.93742C0.774414 4.4632 5.21215 0.0254669 10.6864 0.0254669C16.1606 0.0254669 20.5983 4.4632 20.5983 9.93742Z" fill="#50AF95"/>
<mask id="mask0_145_8759" style="mask-type:luminance" maskUnits="userSpaceOnUse" x="2" y="3" width="17" height="15">
<path d="M18.7316 3.04214H2.64258V17.9819H18.7316V3.04214Z" fill="white"/>
</mask>
<g mask="url(#mask0_145_8759)">
<path fill-rule="evenodd" clip-rule="evenodd" d="M5.58823 3.1155L2.65464 9.69316C2.64348 9.71755 2.63994 9.74522 2.64454 9.77202C2.64915 9.79874 2.66166 9.82322 2.68023 9.84184L10.6032 17.946C10.6257 17.969 10.6557 17.9819 10.6868 17.9819C10.718 17.9819 10.748 17.969 10.7705 17.946L18.6934 9.84235C18.7119 9.82374 18.7244 9.79926 18.7291 9.77245C18.7336 9.74573 18.7301 9.71807 18.719 9.69359L15.7854 3.11601C15.7759 3.09392 15.7607 3.07521 15.7415 3.06211C15.7224 3.04901 15.7001 3.04208 15.6773 3.04214H5.69726C5.67442 3.04184 5.65192 3.0486 5.63262 3.06162C5.61322 3.07464 5.59779 3.09335 5.58823 3.1155Z" fill="#50AF95"/>
<path fill-rule="evenodd" clip-rule="evenodd" d="M11.7052 10.3685C11.6483 10.3731 11.3545 10.3918 10.6989 10.3918C10.1775 10.3918 9.80734 10.3752 9.67745 10.3685C7.66248 10.274 6.15845 9.89957 6.15845 9.45129C6.15845 9.00293 7.66248 8.62903 9.67745 8.53293V9.99568C9.80924 10.0058 10.1865 10.0295 10.7079 10.0295C11.3336 10.0295 11.6469 10.0017 11.7033 9.99619V8.53396C13.714 8.62955 15.2147 9.00396 15.2147 9.45129C15.2147 9.89854 13.7145 10.273 11.7033 10.3681L11.7052 10.3685ZM11.7052 8.38261V7.07372H14.5113V5.07762H6.87133V7.07372H9.67693V8.3821C7.39649 8.49397 5.68164 8.97612 5.68164 9.55395C5.68164 10.1318 7.39649 10.6135 9.67693 10.7258V14.9203H11.7047V10.7242C13.9799 10.6125 15.692 10.1307 15.692 9.55343C15.692 8.97612 13.9817 8.49501 11.7052 8.38261Z" fill="white"/>
</g>
</svg>
