<svg width="139" height="139" viewBox="0 0 139 139" fill="none" xmlns="http://www.w3.org/2000/svg">
<g clip-path="url(#clip0_242_338)">
<path d="M112.291 23.8447H26.5254V101.847H112.291V23.8447Z" fill="white"/>
<path fill-rule="evenodd" clip-rule="evenodd" d="M138.862 69.5004C138.862 107.833 107.788 138.908 69.4545 138.908C31.1217 138.908 0.046875 107.833 0.046875 69.5004C0.046875 31.1676 31.1217 0.0927734 69.4545 0.0927734C107.788 0.0927734 138.862 31.1676 138.862 69.5004ZM49.7863 97.1211H36.3163C33.4858 97.1211 32.0877 97.1211 31.2352 96.5758C30.3144 95.9787 29.7517 94.9898 29.6835 93.8984C29.6323 92.8928 30.3315 91.6648 31.7296 89.2094L64.9889 30.5854C66.4041 28.096 67.1202 26.8513 68.0239 26.3909C68.9958 25.8965 70.1553 25.8965 71.1272 26.3909C72.0309 26.8513 72.747 28.096 74.1622 30.5854L80.9996 42.521L81.0344 42.5819C82.563 45.2525 83.3381 46.6069 83.6765 48.0283C84.0516 49.5799 84.0516 51.2168 83.6765 52.7684C83.3355 54.2006 82.5682 55.5648 81.0166 58.2758L63.5463 89.1583L63.5011 89.2374C61.9625 91.9301 61.1828 93.2949 60.1021 94.3244C58.9256 95.4501 57.5103 96.268 55.9587 96.7292C54.5435 97.1211 52.9578 97.1211 49.7863 97.1211ZM83.8027 97.1211H103.104C105.951 97.1211 107.384 97.1211 108.237 96.5591C109.157 95.9621 109.737 94.9557 109.788 93.8651C109.837 92.8919 109.154 91.7117 107.813 89.3991C107.767 89.3203 107.721 89.2402 107.674 89.1587L98.0058 72.6195L97.8959 72.4333C96.5373 70.1359 95.8515 68.9758 94.9707 68.5274C93.9994 68.0328 92.8562 68.0328 91.8847 68.5274C90.9981 68.9877 90.282 70.1983 88.8668 72.6365L79.2331 89.1758L79.2001 89.2327C77.7898 91.6671 77.085 92.8836 77.1359 93.8817C77.2041 94.9732 77.7667 95.9787 78.6874 96.5758C79.523 97.1211 80.9552 97.1211 83.8027 97.1211Z" fill="#E84142"/>
</g>
<defs>
<clipPath id="clip0_242_338">
<rect width="138.908" height="139" fill="white"/>
</clipPath>
</defs>
</svg>
