<svg width="200" height="200" viewBox="0 0 200 200" fill="none" xmlns="http://www.w3.org/2000/svg">
<g clip-path="url(#clip0_146_9)">
<path d="M100.002 0H100C44.7715 0 0 44.7715 0 100C0 155.228 44.7715 200 100 200H100.002C155.23 200 200.002 155.228 200.002 100C200.002 44.7715 155.23 0 100.002 0Z" fill="#141416"/>
<path d="M117.857 121.228C84.784 131.15 57.425 145.623 40.3 162.58L39.544 163.333C44.097 167.638 49.091 171.488 54.489 174.76L55.649 173.343C60.3401 167.624 65.3164 162.146 70.559 156.928C84.573 142.98 100.609 130.905 117.875 121.21L117.857 121.228ZM12.501 106.528C13.7655 123.691 20.1064 140.089 30.717 153.638L31.192 153.165C41.794 142.718 55.597 133.215 72.248 124.938C86.841 117.675 103.598 111.445 121.655 106.528H12.501ZM79.808 33.815C109.4 63.268 146.64 82.745 187.485 90.13C182.562 46.468 145.357 12.5 100.151 12.5C88.587 12.4904 77.1342 14.7561 66.445 19.168C70.6729 24.2522 75.1319 29.1397 79.808 33.815ZM40.3 37.42C57.425 54.395 84.784 68.85 117.857 78.79C100.591 69.078 84.555 57.02 70.542 43.073C65.3004 37.8543 60.3242 32.3758 55.632 26.658L54.472 25.24C49.1019 28.505 44.0973 32.3362 39.544 36.668L40.3 37.42ZM79.808 166.185C75.1224 170.852 70.663 175.74 66.445 180.833C76.819 185.12 88.213 187.5 100.151 187.5C145.357 187.5 182.562 153.533 187.503 109.852C146.658 117.237 109.417 136.715 79.826 166.168L79.808 166.185ZM72.248 75.063C55.597 66.785 41.794 57.283 31.192 46.835L30.717 46.362C20.1063 59.9108 13.7655 76.3094 12.501 93.472H121.638C103.58 88.555 86.841 82.325 72.23 75.046L72.248 75.063Z" fill="#F5F5F5"/>
</g>
<defs>
<clipPath id="clip0_146_9">
<rect width="200" height="200" fill="white"/>
</clipPath>
</defs>
</svg>
